<svg id="Слой_1" xmlns="http://www.w3.org/2000/svg" viewBox="0 0 279.4 306.1"><style>.st0{fill:#fff}.st1,.st2{opacity:.7;fill:#ed83de}.st2{fill:#8fc8e5}</style><path class="st0" d="M159.2 297.2c-15.9 0-29.6-6.2-38.4-17.5-9.2-11.7-12-27.3-7.8-43.7 1-4 5.1-6.5 9.1-5.5s6.5 5.1 5.5 9.1c-3 11.9-1.1 22.8 5.1 30.8 5.9 7.6 15.4 11.8 26.6 11.8 4.1 0 7.5 3.4 7.5 7.5s-3.5 7.5-7.6 7.5z"/><path class="st1" d="M62 21.7l172.2 99.6-31.7 179.6-36.1-27.2c-47.2-35.5-78.7-88-87.9-146.4L62 21.7z"/><path class="st0" d="M120.2 245.3c-.6 0-1.2-.1-1.8-.2-4-1-6.5-5.1-5.5-9.1l45.5-182.5c1-4 5.1-6.5 9.1-5.5s6.5 5.1 5.5 9.1l-45.5 182.5c-.9 3.4-4 5.7-7.3 5.7z"/><path class="st2" d="M6 52.7l228.2 68.6-31.7 179.6-72.4-36.9c-46.5-23.7-81.2-65.5-96-115.6L6 52.7z"/><circle class="st0" cx="211.3" cy="61.5" r="7.9"/><path class="st0" d="M185.1 250.3c-7.2 0-13.7-3-17.8-8.3-4.2-5.4-5.6-12.7-3.7-20.1 1-4 5.1-6.5 9.1-5.5s6.5 5.1 5.5 9.1c-.7 2.9-.4 5.5 1 7.2 1.3 1.6 3.4 2.5 6 2.5 7 0 14.7-6.2 16.5-13.4 1-4 5.1-6.5 9.1-5.5s6.5 5.1 5.5 9.1c-3.6 14-17.2 24.9-31.2 24.9zm65.8-187.5c-.6 0-1.2-.1-1.8-.2-4-1-6.5-5.1-5.5-9.1 2.3-9.3.9-17.9-3.9-24.1-4.6-5.9-12-9.1-20.8-9.1-19.9 0-41 16.9-46 36.9-1 4-5.1 6.5-9.1 5.5s-6.5-5.1-5.5-9.1c6.8-27.1 33.3-48.3 60.5-48.3 13.5 0 25.1 5.3 32.6 14.9 7.8 10 10.2 23.1 6.7 37-.8 3.3-3.9 5.6-7.2 5.6zm-10.6 42.4c-.6 0-1.2-.1-1.8-.2-4-1-6.5-5.1-5.5-9.1 3.8-15.1 18.6-27 33.8-27 4.1 0 7.5 3.4 7.5 7.5s-3.4 7.5-7.5 7.5c-8.4 0-17.2 7.1-19.3 15.6-.8 3.4-3.8 5.7-7.2 5.7z"/><path class="st0" d="M266.8 84.1c-7.9 0-14.7-3.2-19.2-8.9-4.5-5.8-6-13.7-4-21.7 1-4 5.1-6.5 9.1-5.5s6.5 5.1 5.5 9.1c-.9 3.5-.4 6.7 1.3 8.8 1.6 2 4.2 3.1 7.4 3.1 4.1 0 7.5 3.4 7.5 7.5s-3.4 7.6-7.6 7.6zm-96.2 148.2c-.6 0-1.2-.1-1.8-.2-4-1-6.5-5.1-5.5-9.1l24.4-98c1-4 5.1-6.5 9.1-5.5s6.5 5.1 5.5 9.1l-24.4 98c-.9 3.4-4 5.7-7.3 5.7zm38.3-1.1c-.6 0-1.2-.1-1.8-.2-4-1-6.5-5.1-5.5-9.1l31.4-126c1-4 5.1-6.5 9.1-5.5s6.5 5.1 5.5 9.1l-31.4 126.1c-.9 3.4-3.9 5.6-7.3 5.6z"/></svg>